<svg viewBox="0 0 900 300" xmlns="http://www.w3.org/2000/svg">
  <defs>
    <linearGradient id="g" x1="15%" y1="0%" x2="72%" y2="100%">
      <stop offset="0%" stop-color="#4fc3ff"/>
      <stop offset="50%" stop-color="#1466d6"/>
      <stop offset="100%" stop-color="#0a1a52"/>
    </linearGradient>
    <clipPath id="clipBadge">
      <path d="
        M 23 3
        L 77 3
        A 20 20 0 0 1 97 23
        L 97 77
        A 20 20 0 0 1 77 97
        L 23 97
        A 20 20 0 0 1 3 77
        L 3 23
        A 20 20 0 0 1 23 3
        Z
      "/>
    </clipPath>
  </defs>

  <g transform="translate(20,20) scale(2.6)">
    <path fill="url(#g)" d="
      M 23 3
      L 77 3
      A 20 20 0 0 1 97 23
      L 97 77
      A 20 20 0 0 1 77 97
      L 23 97
      A 20 20 0 0 1 3 77
      L 3 23
      A 20 20 0 0 1 23 3
      Z
    "/>
    <path fill="#ffffff" clip-path="url(#clipBadge)" d="M 105 -5 L 105 30 L 44 30 L 22 86 L 12.7 82.3 L 34.7 26.3 L 34.7 -5 Z"/>
  </g>

  <g transform="translate(320,0)">
    <text x="0" y="128" font-family="Arial, Helvetica, sans-serif" font-size="76" font-weight="700" letter-spacing="0.5" fill="#0b1442">CyberSage</text>
    <text x="4" y="220" font-family="Arial, Helvetica, sans-serif" font-size="92" font-weight="700" letter-spacing="0.5" fill="#0b1442">Nexus</text>
  </g>
</svg>
